<?xml version="1.0" standalone="no"?>
<!DOCTYPE svg PUBLIC "-//W3C//DTD SVG 20010904//EN"
 "http://www.w3.org/TR/2001/REC-SVG-20010904/DTD/svg10.dtd">
<svg version="1.0" xmlns="http://www.w3.org/2000/svg"
 width="726.000000pt" height="761.000000pt" viewBox="0 0 726.000000 761.000000"
 preserveAspectRatio="xMidYMid meet">

<g transform="translate(0.000000,761.000000) scale(0.100000,-0.100000)"
fill="#000000" stroke="none">
<path d="M4687 6699 c-494 -72 -1007 -476 -1263 -994 l-55 -110 33 -25 c18
-14 64 -53 104 -87 39 -34 74 -60 78 -58 3 3 4 2 1 -1 -8 -11 76 -104 87 -97
7 3 8 1 4 -6 -4 -6 5 -24 23 -41 16 -17 27 -30 25 -30 -2 0 3 -11 12 -25 9
-14 19 -23 23 -20 4 2 8 -1 8 -8 0 -26 76 -137 93 -137 23 0 44 -26 34 -41 -5
-8 -3 -9 5 -5 7 5 10 15 7 23 -3 8 -1 11 4 8 6 -3 10 -2 10 3 0 5 -9 12 -20
15 -25 6 -27 37 -2 37 13 0 14 -2 3 -9 -9 -6 -10 -11 -2 -15 6 -4 15 -5 20 -1
20 12 20 -15 0 -50 -17 -27 -24 -33 -35 -25 -10 10 -11 7 -1 -14 7 -14 16 -26
20 -26 5 0 5 -5 1 -12 -4 -7 -3 -8 5 -4 9 6 9 11 1 21 -8 9 -7 17 3 26 7 8 16
22 20 32 3 9 11 17 16 17 5 0 12 -8 14 -17 3 -10 4 -2 2 17 -4 51 -4 50 -20
50 -8 0 -19 9 -25 20 -6 11 -7 20 -2 20 28 0 51 114 28 139 -8 9 -15 21 -16
26 -3 16 -10 20 -10 5 0 -10 -3 -10 -15 0 -14 12 -14 15 0 30 11 12 12 19 3
28 -9 9 -7 12 9 12 11 0 24 7 27 16 8 22 8 24 -8 24 -17 0 -29 27 -16 35 20
13 -31 84 -61 85 -8 0 -24 6 -34 14 -18 13 -18 14 6 27 13 8 38 19 54 26 23 9
25 12 10 13 -11 0 -29 7 -40 16 -16 12 -17 16 -6 23 21 14 4 33 -19 21 -20
-11 -50 -4 -50 11 0 5 7 9 15 9 18 0 18 4 3 47 -16 45 -34 42 -30 -5 4 -40
-17 -70 -39 -57 -8 6 -7 10 2 16 11 7 10 9 -3 9 -10 0 -18 7 -18 15 0 18 -38
35 -58 27 -12 -4 -12 -1 -1 19 42 76 72 118 80 113 5 -3 9 1 9 8 0 10 3 9 9
-1 8 -12 12 -13 26 -1 14 12 20 10 42 -15 22 -23 24 -31 15 -46 -10 -16 -9
-19 8 -19 19 0 26 19 21 58 -2 8 5 29 14 48 15 32 19 34 53 29 36 -5 36 -5 7
5 -39 13 -92 4 -104 -18 -8 -14 -12 -15 -23 -4 -10 10 -9 14 9 18 13 4 20 11
16 20 -3 8 5 17 20 23 14 6 31 20 38 32 10 20 9 21 -7 15 -16 -6 -17 -5 -6 6
11 11 16 10 26 -5 12 -16 14 -16 20 -2 3 9 1 26 -5 37 -11 20 -11 20 -37 -3
-15 -13 6 11 47 53 61 63 78 75 92 67 26 -13 36 -11 15 4 -16 12 -15 14 8 36
15 14 26 20 26 15 0 -5 4 -3 9 5 6 9 14 10 27 3 12 -6 26 -7 35 -1 12 6 19 2
29 -16 8 -15 22 -25 36 -25 13 0 26 -4 29 -10 3 -6 -4 -10 -16 -10 -22 0 -22
0 -3 -14 10 -8 21 -10 22 -5 2 5 14 9 27 9 24 0 55 -37 55 -65 0 -9 9 -15 23
-15 17 0 19 2 7 10 -25 16 -1 25 78 28 105 5 117 22 17 23 -74 1 -162 15 -110
18 11 1 36 11 55 23 l35 22 -30 6 c-18 4 -39 1 -51 -7 -18 -12 -24 -10 -47 17
-31 34 -33 40 -12 40 19 0 19 19 0 26 -8 3 -22 -1 -30 -10 -9 -9 -24 -15 -33
-15 -15 1 -15 2 1 6 20 5 22 19 5 26 -7 3 -3 6 10 6 12 1 22 7 22 15 0 8 3 16
8 19 4 2 1 2 -6 0 -33 -8 0 24 54 53 54 29 148 59 116 36 -11 -7 -7 -11 13
-16 14 -4 31 -4 37 0 7 4 8 3 4 -4 -4 -7 -2 -12 4 -12 7 0 10 -7 6 -15 -6 -16
33 -31 58 -22 8 3 20 0 26 -8 8 -10 18 -11 35 -5 19 7 24 4 34 -16 11 -26 42
-32 59 -11 15 18 -8 87 -30 87 -11 0 -15 6 -11 20 4 14 -2 23 -20 31 -37 17
-42 48 -9 55 15 3 35 8 44 10 9 3 33 -2 54 -11 55 -23 85 -26 101 -10 8 8 26
15 39 15 16 0 23 4 18 11 -5 9 7 10 42 5 85 -12 128 -26 116 -38 -6 -6 -8 -17
-5 -24 4 -10 0 -12 -11 -8 -20 8 -20 -5 -1 -30 8 -10 12 -23 9 -27 -3 -5 2 -6
11 -2 12 4 13 8 5 13 -14 8 -4 70 10 70 5 0 7 -6 4 -14 -3 -7 2 -16 10 -19 9
-4 16 -12 16 -18 0 -8 -6 -7 -17 2 -16 13 -17 12 -5 -3 8 -9 11 -22 8 -27 -4
-5 -2 -12 4 -16 5 -3 10 1 10 9 0 9 7 16 15 16 8 0 15 4 15 10 0 5 9 2 21 -8
49 -41 148 -221 114 -208 -17 6 -21 -9 -5 -19 17 -11 11 -37 -7 -33 -10 2 -17
12 -16 22 2 23 -12 9 -22 -21 -6 -21 -3 -23 36 -23 23 0 39 -3 35 -7 -4 -5
-18 -8 -29 -8 -13 0 -22 -6 -22 -15 0 -8 -8 -22 -17 -31 -23 -21 -23 -31 3
-47 16 -11 18 -16 9 -28 -7 -8 -22 -14 -34 -14 -17 0 -18 -2 -6 -9 8 -6 27 -7
42 -4 17 3 28 1 28 -6 0 -6 6 -11 14 -11 8 0 17 -8 19 -17 3 -11 5 -7 6 10 1
18 5 26 12 21 8 -5 10 1 7 20 -5 26 -5 27 12 8 34 -36 51 -242 20 -242 -6 0
-10 -6 -10 -14 0 -8 -8 -17 -17 -20 -15 -6 -15 -8 -3 -16 15 -9 16 -12 18 -67
2 -23 7 -33 18 -33 15 0 16 -11 11 -87 -5 -78 -27 -163 -43 -163 -3 0 -2 5 1
10 3 6 1 10 -4 10 -6 0 -12 -17 -12 -37 -1 -21 -3 -55 -5 -76 -2 -22 1 -35 6
-32 14 8 13 0 -7 -61 -9 -29 -20 -51 -25 -48 -4 3 -5 -2 -2 -10 7 -19 -46
-157 -58 -150 -5 3 -8 2 -7 -3 4 -22 -2 -57 -9 -48 -4 6 -26 10 -50 10 -24 0
-40 -4 -38 -10 2 -5 14 -9 28 -8 15 1 29 -7 38 -20 12 -20 12 -21 -2 -9 -14
11 -18 8 -29 -17 -7 -16 -17 -27 -22 -24 -5 3 -7 0 -5 -8 3 -8 11 -13 17 -11
7 1 9 -2 6 -8 -4 -6 -10 -9 -13 -6 -3 3 -11 1 -19 -5 -9 -9 -10 -15 -3 -25 15
-17 -8 -54 -29 -47 -11 4 -9 0 4 -11 11 -10 14 -15 8 -11 -12 5 -18 -6 -14
-27 0 -5 -3 -8 -9 -8 -6 0 -9 -3 -8 -7 4 -13 -34 -63 -43 -57 -5 3 -6 -1 -3
-9 6 -18 -25 -45 -34 -30 -5 7 -12 6 -22 -5 -13 -14 -12 -15 3 -9 23 9 21 0
-8 -39 -28 -37 -60 -37 -49 0 5 17 4 19 -7 8 -11 -10 -11 -16 -1 -32 8 -14 9
-20 1 -20 -6 0 -9 -7 -6 -15 4 -8 1 -17 -5 -21 -6 -4 -8 -3 -4 4 3 6 2 13 -4
17 -5 3 -10 -1 -10 -11 0 -9 -8 -23 -17 -31 -11 -9 -12 -11 -3 -7 10 5 9 1 -4
-14 -10 -12 -23 -19 -28 -16 -4 3 -7 2 -6 -3 5 -17 -57 -69 -80 -67 -15 1 -21
-3 -18 -11 7 -19 -15 -35 -47 -35 -16 0 -26 -4 -22 -10 3 -5 1 -10 -5 -10 -6
0 -8 -5 -4 -12 4 -7 3 -8 -5 -4 -6 4 -9 11 -6 16 3 5 -3 8 -14 7 -18 -1 -19
-27 0 -27 5 0 9 -5 9 -11 0 -5 -4 -8 -9 -4 -5 3 -12 1 -16 -5 -3 -5 -11 -10
-18 -10 -8 0 -8 3 1 12 15 15 15 28 1 28 -5 0 -8 -4 -4 -9 3 -5 1 -12 -4 -16
-6 -3 -8 -12 -5 -20 7 -16 -51 -49 -68 -39 -6 4 -8 3 -5 -3 4 -6 -6 -16 -21
-22 -18 -9 -28 -9 -30 -2 -2 6 -10 11 -18 11 -8 0 -14 4 -14 9 0 5 -7 11 -15
15 -25 9 -17 -8 13 -27 27 -18 27 -18 2 -12 -14 4 -31 15 -39 26 -7 10 -21 19
-30 19 -9 0 -29 7 -45 15 -15 8 -35 15 -43 15 -8 0 -25 12 -38 26 -20 22 -25
37 -25 83 0 31 -7 68 -14 84 -9 15 -11 27 -5 27 6 0 10 19 9 43 -1 23 -1 56
-1 72 l2 30 14 -33 c19 -42 41 -37 38 9 -1 25 0 29 6 15 7 -18 8 -18 24 5 9
13 17 40 17 61 0 31 4 38 20 38 11 0 20 -4 20 -10 0 -13 37 -13 45 0 3 5 -7
17 -21 27 -20 13 -29 14 -32 5 -7 -21 -22 -2 -22 29 0 16 -4 29 -10 29 -5 0
-10 -7 -10 -15 0 -21 -18 -19 -23 3 -4 13 -5 11 -6 -5 -1 -27 -25 -30 -76 -9
-34 15 -50 10 -37 -10 4 -5 18 -11 31 -11 31 -2 32 -5 25 -40 -6 -29 -8 -31
-44 -26 -47 7 -80 -10 -80 -42 0 -13 -5 -27 -12 -31 -7 -5 -9 -1 -6 12 3 11
-1 25 -9 33 -12 10 -13 9 -8 -11 43 -191 44 -436 1 -644 -8 -39 -16 -79 -18
-89 -3 -16 4 -18 57 -16 33 2 118 18 190 36 285 72 506 202 735 434 276 279
458 641 531 1056 32 183 32 449 0 620 -62 334 -208 598 -376 680 -99 49 -297
68 -458 44z m593 -599 c0 -5 -5 -10 -11 -10 -5 0 -7 5 -4 10 3 6 8 10 11 10 2
0 4 -4 4 -10z m14 -36 c9 -3 16 -14 16 -23 -1 -13 -3 -13 -17 4 -15 19 -15 19
-9 -7 5 -21 3 -28 -9 -28 -18 0 -30 24 -21 45 6 16 16 18 40 9z m-1376 -29
c-3 -3 -9 2 -12 12 -6 14 -5 15 5 6 7 -7 10 -15 7 -18z m-68 -9 c0 -2 -8 -10
-17 -17 -16 -13 -17 -12 -4 4 13 16 21 21 21 13z m-164 -338 c-12 -7 -21 -7
-28 0 -6 6 0 10 18 10 23 0 24 -2 10 -10z m69 -68 c3 -5 -3 -10 -15 -10 -12 0
-18 5 -15 10 3 6 10 10 15 10 5 0 12 -4 15 -10z m-145 -84 c12 -3 12 -4 -2 -5
-9 0 -24 9 -32 21 -9 12 -16 17 -16 10 0 -6 9 -21 19 -31 21 -21 16 -38 -5
-20 -7 6 -19 9 -26 6 -9 -4 -7 -6 3 -6 21 -1 34 -32 18 -42 -18 -11 -47 12
-45 35 2 12 11 36 21 55 l17 34 16 -26 c9 -14 23 -28 32 -31z m190 0 c0 -2
-11 -6 -25 -8 -13 -3 -22 -1 -19 3 5 9 44 13 44 5z m-125 -96 c-3 -5 -12 -10
-18 -10 -7 0 -6 4 3 10 19 12 23 12 15 0z m127 -2 c-9 -9 -15 -9 -24 0 -9 9
-7 12 12 12 19 0 21 -3 12 -12z m-56 -105 c13 -17 13 -17 14 2 0 14 3 16 12 7
8 -8 8 -15 -2 -27 -11 -13 -11 -21 -3 -35 9 -13 9 -20 0 -29 -13 -13 -38 -15
-34 -2 1 5 -7 17 -18 26 -19 15 -19 16 5 4 14 -7 28 -17 32 -23 5 -8 8 -7 8 1
0 7 -9 17 -21 24 -15 8 -18 14 -10 22 14 14 15 30 1 22 -5 -3 -10 1 -10 9 0
21 10 20 26 -1z m94 -5 c0 -16 -3 -19 -11 -11 -6 6 -8 16 -5 22 11 17 16 13
16 -11z m430 -663 c0 -8 -7 -15 -15 -15 -9 0 -12 6 -9 15 4 8 10 15 15 15 5 0
9 -7 9 -15z m-170 -75 c0 -5 -7 -10 -16 -10 -8 0 -12 5 -9 10 3 6 10 10 16 10
5 0 9 -4 9 -10z m110 -10 c0 -5 -5 -10 -11 -10 -5 0 -7 5 -4 10 3 6 8 10 11
10 2 0 4 -4 4 -10z m-90 -115 c0 -9 -6 -12 -15 -9 -8 4 -12 10 -9 15 8 14 24
10 24 -6z m40 -35 c0 -5 -9 -10 -20 -10 -11 0 -20 5 -20 10 0 6 9 10 20 10 11
0 20 -4 20 -10z m-20 -40 c20 -20 29 -77 10 -65 -16 10 -52 85 -40 85 5 0 19
-9 30 -20z m-34 -55 c-3 -8 2 -19 10 -25 18 -16 18 -30 0 -30 -15 0 -36 48
-29 68 3 6 9 9 15 6 5 -3 7 -12 4 -19z m20 -191 c24 -23 62 -40 78 -36 5 2 6
-4 2 -13 -4 -12 -1 -15 13 -10 14 4 18 0 19 -24 1 -27 -3 -29 -55 -40 -68 -13
-96 -14 -89 -2 3 5 -1 14 -9 21 -7 6 -11 18 -8 26 3 8 1 14 -3 14 -5 0 -7 25
-5 56 2 38 6 52 12 43 6 -10 9 -8 10 11 l2 25 4 -25 c3 -13 16 -34 29 -46z
m141 20 c-3 -3 -12 -4 -19 -1 -8 3 -5 6 6 6 11 1 17 -2 13 -5z"/>
<path d="M3540 5490 c0 -13 18 -22 24 -11 3 5 -1 11 -9 15 -8 3 -15 1 -15 -4z"/>
<path d="M4800 6440 c0 -5 5 -10 11 -10 5 0 7 5 4 10 -3 6 -8 10 -11 10 -2 0
-4 -4 -4 -10z"/>
<path d="M4995 6421 c-3 -5 -1 -12 5 -16 5 -3 10 1 10 9 0 18 -6 21 -15 7z"/>
<path d="M5127 6406 c-4 -11 -1 -13 11 -9 15 6 15 5 3 -10 -8 -10 -12 -19 -10
-22 3 -2 10 4 16 15 10 14 9 21 -1 29 -10 9 -15 8 -19 -3z"/>
<path d="M4460 6376 c0 -9 5 -16 10 -16 6 0 10 4 10 9 0 6 -4 13 -10 16 -5 3
-10 -1 -10 -9z"/>
<path d="M4900 6370 c-14 -10 -21 -22 -17 -26 11 -11 57 14 57 31 0 20 -10 19
-40 -5z"/>
<path d="M5056 6383 c-4 -4 -22 -6 -41 -5 -49 5 -51 -13 -2 -31 71 -26 87 -29
87 -17 0 6 -4 8 -10 5 -6 -3 -10 5 -10 19 0 26 -12 40 -24 29z"/>
<path d="M4523 6333 c9 -2 23 -2 30 0 6 3 -1 5 -18 5 -16 0 -22 -2 -12 -5z"/>
<path d="M4933 6333 c-13 -2 -23 -9 -23 -14 0 -14 26 -11 40 6 7 8 11 14 9 14
-2 -1 -14 -4 -26 -6z"/>
<path d="M4994 6332 c-20 -12 -20 -46 -2 -64 22 -22 28 -22 28 -3 0 8 -7 15
-15 15 -8 0 -15 6 -15 14 0 8 7 16 15 20 8 3 15 10 15 16 0 12 -10 13 -26 2z"/>
<path d="M4602 6313 c5 -26 38 -29 38 -4 0 15 -6 21 -21 21 -14 0 -19 -5 -17
-17z"/>
<path d="M4512 6309 c2 -6 8 -10 13 -10 5 0 11 4 13 10 2 6 -4 11 -13 11 -9 0
-15 -5 -13 -11z"/>
<path d="M5036 6304 c-4 -9 -4 -19 -1 -22 2 -3 7 3 11 12 4 9 4 19 1 22 -2 3
-7 -3 -11 -12z"/>
<path d="M4764 6293 c-31 -3 -43 -9 -47 -24 -4 -15 0 -19 23 -19 24 0 28 -4
34 -40 9 -58 26 -49 26 13 0 29 5 58 12 65 7 7 8 11 3 10 -6 -1 -29 -3 -51 -5z"/>
<path d="M4925 6270 c-8 -14 3 -30 21 -30 8 0 14 9 14 20 0 21 -24 28 -35 10z"/>
<path d="M4840 6266 c0 -8 22 -73 32 -93 9 -17 15 -20 29 -13 15 9 16 15 7 40
-5 17 -14 30 -19 30 -5 0 -9 9 -9 20 0 13 -7 20 -20 20 -11 0 -20 -2 -20 -4z"/>
<path d="M4474 6226 c-9 -9 -8 -17 2 -31 11 -15 18 -16 36 -7 23 11 23 11 -4
11 -16 1 -28 6 -28 11 0 6 12 10 28 10 21 0 24 2 12 10 -20 13 -33 12 -46 -4z"/>
<path d="M4044 6208 c-10 -12 -13 -18 -6 -14 7 4 21 2 30 -5 14 -11 15 -11 5
0 -6 7 -9 20 -6 27 8 20 -1 17 -23 -8z"/>
<path d="M4720 6205 c0 -23 2 -24 20 -15 11 6 20 13 20 15 0 2 -9 9 -20 15
-18 9 -20 8 -20 -15z"/>
<path d="M4811 6188 c-9 -24 -8 -33 1 -39 10 -7 10 -11 0 -21 -9 -9 -12 -9
-12 5 0 9 -6 17 -14 17 -25 0 -28 -19 -6 -32 25 -16 25 -25 3 -31 -11 -3 -7
-5 10 -6 32 -1 64 13 90 40 15 16 15 19 2 19 -8 0 -15 7 -15 15 0 8 -7 15 -15
15 -9 0 -15 9 -15 25 0 35 -16 31 -29 -7z"/>
<path d="M3961 6134 c-24 -25 -41 -48 -37 -51 3 -4 6 -1 6 5 0 7 12 10 32 8
30 -4 31 -3 13 10 -16 12 -17 16 -4 27 17 13 43 47 38 47 -2 0 -24 -21 -48
-46z"/>
<path d="M4568 6163 c7 -3 16 -2 19 1 4 3 -2 6 -13 5 -11 0 -14 -3 -6 -6z"/>
<path d="M4625 6151 c-3 -5 -1 -12 5 -16 5 -3 10 1 10 9 0 18 -6 21 -15 7z"/>
<path d="M4108 6138 c9 -9 15 -9 24 0 9 9 7 12 -12 12 -19 0 -21 -3 -12 -12z"/>
<path d="M4557 6124 c-11 -11 3 -24 18 -18 8 4 12 10 9 15 -6 11 -18 12 -27 3z"/>
<path d="M4241 6104 c0 -11 3 -14 6 -6 3 7 2 16 -1 19 -3 4 -6 -2 -5 -13z"/>
<path d="M5195 6110 c3 -5 8 -10 11 -10 2 0 4 5 4 10 0 6 -5 10 -11 10 -5 0
-7 -4 -4 -10z"/>
<path d="M4105 6100 c-3 -5 1 -10 9 -10 10 0 15 -8 13 -22 -1 -14 4 -23 16
-26 13 -3 17 3 17 22 0 14 5 26 11 26 5 0 7 5 3 11 -4 8 -9 7 -15 -2 -6 -11
-11 -11 -21 -1 -15 15 -25 15 -33 2z"/>
<path d="M4640 6100 c-12 -8 -10 -10 8 -10 13 0 20 4 17 10 -7 12 -6 12 -25 0z"/>
<path d="M4453 6093 c-31 -4 -51 -27 -33 -38 5 -3 18 -1 29 5 11 5 31 10 45
10 16 0 26 6 26 15 0 15 -5 16 -67 8z"/>
<path d="M4362 6058 c7 -19 38 -22 38 -4 0 10 -9 16 -21 16 -12 0 -19 -5 -17
-12z"/>
<path d="M4055 6020 c-19 -8 -19 -9 3 -9 12 -1 22 4 22 9 0 6 -1 10 -2 9 -2 0
-12 -4 -23 -9z"/>
<path d="M4677 6003 c10 -29 14 -34 24 -28 5 4 5 14 -1 26 -13 24 -32 25 -23
2z"/>
<path d="M3970 5990 c-12 -8 -12 -10 5 -9 11 0 29 4 40 9 18 8 18 9 -5 9 -14
0 -32 -4 -40 -9z"/>
<path d="M3895 5980 c-3 -5 1 -10 9 -10 9 0 16 5 16 10 0 6 -4 10 -9 10 -6 0
-13 -4 -16 -10z"/>
<path d="M4610 5975 c0 -9 6 -12 15 -9 8 4 15 10 15 15 0 5 -7 9 -15 9 -8 0
-15 -7 -15 -15z"/>
<path d="M4560 5960 c0 -19 3 -21 12 -12 9 9 9 15 0 24 -9 9 -12 7 -12 -12z"/>
<path d="M4728 5963 c7 -3 16 -2 19 1 4 3 -2 6 -13 5 -11 0 -14 -3 -6 -6z"/>
<path d="M4250 5945 c0 -8 5 -15 10 -15 6 0 10 7 10 15 0 8 -4 15 -10 15 -5 0
-10 -7 -10 -15z"/>
<path d="M4008 5943 c7 -3 16 -2 19 1 4 3 -2 6 -13 5 -11 0 -14 -3 -6 -6z"/>
<path d="M4640 5941 c0 -7 -4 -10 -9 -7 -5 4 -20 2 -33 -3 -21 -9 -21 -10 10
-10 17 -1 32 -5 32 -10 0 -5 -8 -7 -18 -5 -9 3 -28 1 -42 -5 -24 -9 -23 -10
12 -10 20 -1 43 -3 51 -6 10 -5 13 2 12 25 -2 29 -15 57 -15 31z"/>
<path d="M4488 5933 c7 -3 16 -2 19 1 4 3 -2 6 -13 5 -11 0 -14 -3 -6 -6z"/>
<path d="M4020 5920 c0 -5 5 -10 10 -10 6 0 10 5 10 10 0 6 -4 10 -10 10 -5 0
-10 -4 -10 -10z"/>
<path d="M4735 5910 c-18 -8 -17 -9 8 -9 15 -1 27 4 27 9 0 12 -8 12 -35 0z"/>
<path d="M4435 5900 c3 -5 8 -10 11 -10 2 0 4 5 4 10 0 6 -5 10 -11 10 -5 0
-7 -4 -4 -10z"/>
<path d="M4471 5902 c-1 -19 27 -26 52 -13 20 10 19 11 -10 8 -18 -2 -35 1
-37 7 -3 7 -5 6 -5 -2z"/>
<path d="M3902 5881 c-19 -12 -5 -84 15 -77 8 3 30 6 49 6 19 0 34 5 34 10 0
6 -18 10 -39 10 -37 0 -40 2 -43 30 -2 21 -7 27 -16 21z"/>
<path d="M4802 5870 c0 -14 2 -19 5 -12 2 6 2 18 0 25 -3 6 -5 1 -5 -13z"/>
<path d="M4720 5870 c0 -5 14 -10 30 -10 17 0 30 5 30 10 0 6 -13 10 -30 10
-16 0 -30 -4 -30 -10z"/>
<path d="M3716 5853 c-3 -8 -1 -11 4 -8 6 3 10 -2 11 -12 1 -13 3 -11 9 7 6
19 8 20 9 6 1 -12 6 -16 17 -12 9 3 20 6 25 6 6 0 7 5 4 10 -4 6 -11 8 -16 5
-5 -4 -15 -3 -21 2 -22 13 -36 12 -42 -4z"/>
<path d="M4040 5860 c0 -5 5 -10 10 -10 6 0 10 5 10 10 0 6 -4 10 -10 10 -5 0
-10 -4 -10 -10z"/>
<path d="M4540 5860 c-20 -6 -21 -8 -5 -8 11 0 29 3 40 8 25 11 -1 11 -35 0z"/>
<path d="M4030 5815 c0 -8 5 -15 10 -15 6 0 10 7 10 15 0 8 -4 15 -10 15 -5 0
-10 -7 -10 -15z"/>
<path d="M4695 5790 c-3 -5 1 -10 9 -10 9 0 16 5 16 10 0 6 -4 10 -9 10 -6 0
-13 -4 -16 -10z"/>
<path d="M4817 5793 c-12 -11 -8 -33 8 -39 17 -7 49 21 40 36 -7 11 -38 13
-48 3z"/>
<path d="M5027 5780 c-3 -11 -1 -20 4 -20 5 0 9 9 9 20 0 11 -2 20 -4 20 -2 0
-6 -9 -9 -20z"/>
<path d="M4010 5780 c-11 -7 3 -9 45 -9 48 1 54 3 30 9 -43 11 -58 11 -75 0z"/>
<path d="M3833 5735 c0 -22 2 -30 4 -17 2 12 2 30 0 40 -3 9 -5 -1 -4 -23z"/>
<path d="M4125 5760 c3 -5 15 -10 26 -10 10 0 19 5 19 10 0 6 -12 10 -26 10
-14 0 -23 -4 -19 -10z"/>
<path d="M4045 5740 c3 -5 13 -10 21 -10 8 0 14 5 14 10 0 6 -9 10 -21 10 -11
0 -17 -4 -14 -10z"/>
<path d="M4860 5735 c0 -8 5 -15 10 -15 6 0 10 7 10 15 0 8 -4 15 -10 15 -5 0
-10 -7 -10 -15z"/>
<path d="M4551 5714 c0 -11 3 -14 6 -6 3 7 2 16 -1 19 -3 4 -6 -2 -5 -13z"/>
<path d="M4980 5708 c0 -10 -4 -18 -10 -18 -5 0 -10 -14 -10 -31 0 -26 2 -29
14 -19 8 6 12 18 9 26 -6 17 26 46 45 39 6 -2 12 1 12 9 0 7 -12 13 -30 13
-22 0 -30 -5 -30 -19z"/>
<path d="M2365 5704 c-128 -21 -272 -82 -330 -139 -43 -43 -94 -147 -120 -245
-26 -96 -32 -342 -11 -464 64 -374 277 -732 571 -961 95 -74 138 -101 242
-155 l78 -40 -570 0 c-538 0 -572 -1 -612 -19 -69 -32 -73 -48 -73 -301 0
-239 3 -258 56 -299 l27 -21 1999 0 c1877 0 2002 1 2029 17 16 10 39 36 50 60
19 39 20 57 17 257 -3 240 -7 252 -79 288 -32 17 -98 18 -958 18 -875 0 -923
1 -916 18 103 264 126 555 64 838 -118 544 -538 992 -1053 1120 -78 20 -133
26 -241 29 -77 2 -153 1 -170 -1z m40 -190 c11 -8 20 -20 20 -27 0 -7 14 -12
31 -12 21 0 30 -4 27 -12 -3 -7 3 -15 13 -19 11 -3 27 -10 36 -15 23 -12 28
-11 28 1 0 6 -8 10 -17 10 -14 0 -13 4 7 25 18 20 26 22 42 14 26 -14 52 6 28
21 -12 7 -11 9 5 8 11 -1 34 2 50 5 22 6 26 5 15 -3 -13 -9 -13 -11 0 -20 13
-9 13 -10 0 -10 -9 0 -21 5 -28 12 -6 6 -15 8 -19 3 -5 -4 -2 -10 6 -13 10 -3
7 -9 -10 -19 -23 -14 -23 -14 -1 -8 33 9 82 -4 82 -22 0 -8 6 -13 13 -10 6 2
11 12 11 21 -2 20 5 20 33 1 19 -13 22 -13 27 1 4 10 13 13 25 9 11 -3 22 -1
26 4 4 7 -1 8 -12 5 -14 -4 -15 -4 -4 4 16 12 94 -18 191 -73 75 -42 91 -55
86 -64 -3 -4 4 -8 15 -8 23 -2 121 -82 114 -94 -3 -4 2 -12 11 -17 9 -5 16
-13 16 -18 0 -5 4 -8 9 -7 4 2 6 -3 3 -11 -3 -8 -1 -17 4 -20 6 -3 8 -16 6
-29 -4 -20 -4 -20 5 -2 5 12 5 25 -1 32 -5 7 -5 14 1 17 11 7 24 -11 26 -36 2
-22 13 -34 22 -24 4 4 1 11 -7 16 -8 6 -10 10 -5 10 6 0 17 -8 25 -17 68 -81
91 -114 85 -123 -4 -6 -2 -17 4 -24 6 -7 8 -22 4 -31 -4 -13 -3 -16 5 -11 15
9 16 46 2 46 -5 0 -10 5 -10 12 0 8 6 6 16 -4 11 -11 14 -25 10 -41 -4 -19
-14 -26 -46 -31 -46 -7 -54 -30 -15 -48 38 -17 30 -23 -26 -19 -62 4 -60 -14
2 -24 30 -5 38 -10 28 -16 -12 -8 -11 -11 4 -20 15 -9 16 -13 5 -26 -11 -14
-9 -15 17 -10 17 3 40 8 53 12 17 6 22 3 23 -11 0 -18 1 -18 9 1 11 27 12 44
1 26 -7 -10 -9 -7 -8 12 1 15 6 22 11 17 5 -5 14 -6 21 -4 15 6 57 -87 61
-136 2 -19 3 -36 3 -37 2 -8 -5 -18 -11 -16 -12 4 -9 -16 7 -47 9 -17 11 -30
5 -30 -5 0 -10 6 -10 14 0 16 -26 46 -41 46 -5 0 -9 -11 -9 -24 0 -14 -9 -31
-21 -40 -17 -12 -20 -20 -14 -46 5 -22 4 -30 -3 -26 -6 3 -14 2 -17 -4 -5 -8
-11 -7 -22 1 -19 16 -34 -5 -31 -40 2 -13 -2 -26 -9 -28 -7 -3 -9 3 -6 17 4
16 2 19 -11 14 -9 -3 -13 -10 -10 -15 3 -5 0 -9 -6 -9 -6 0 -8 -5 -4 -12 4 -7
3 -8 -5 -4 -6 4 -8 12 -5 18 5 7 1 9 -9 5 -10 -4 -21 3 -33 21 -9 15 -36 53
-60 84 -39 52 -41 58 -26 70 15 11 15 11 4 -3 -10 -13 -9 -19 3 -29 10 -8 15
-9 15 -2 0 6 6 9 14 6 8 -3 17 0 22 7 5 9 2 10 -10 6 -12 -5 -19 1 -26 19 -12
32 -13 44 -1 44 5 0 11 -12 13 -27 l3 -28 24 34 c19 27 21 35 10 42 -12 7 -11
14 5 44 11 19 26 36 35 36 13 1 13 2 -1 6 -10 2 -18 7 -18 10 0 3 8 12 18 19
16 13 16 15 -2 29 -32 24 -46 19 -39 -15 6 -33 -10 -40 -48 -19 -16 8 -23 7
-32 -4 -7 -8 -19 -17 -27 -21 -8 -3 -1 -5 15 -4 74 3 80 -6 42 -62 -13 -19
-22 -40 -20 -47 2 -6 -1 -14 -6 -18 -7 -4 -8 0 -4 11 5 13 3 15 -8 9 -8 -5 -7
-1 4 12 9 11 14 23 11 26 -4 4 -1 13 6 22 15 18 13 21 -22 30 -22 6 -29 3 -35
-11 -10 -26 -46 -64 -41 -44 2 8 -3 14 -9 13 -7 -2 -12 1 -10 5 1 4 -27 35
-63 69 -56 53 -66 77 -21 49 10 -6 12 -5 7 2 -4 6 0 22 9 35 8 13 13 31 10 40
-5 11 2 17 24 22 17 4 31 11 31 17 0 6 -11 7 -26 4 -24 -6 -25 -5 -11 9 18 17
47 20 47 4 0 -14 42 -7 47 8 3 7 -3 9 -16 6 -12 -3 -21 -1 -21 5 0 5 9 12 20
15 29 8 15 31 -28 47 -20 7 -43 15 -50 18 -12 4 -12 1 0 -17 11 -18 11 -23 -2
-31 -13 -8 -12 -10 3 -10 9 0 26 5 36 12 11 6 26 8 37 3 15 -6 12 -9 -21 -17
-54 -12 -99 -2 -138 31 -38 32 -103 54 -126 42 -9 -5 -25 -5 -36 0 -33 13 -45
10 -45 -12 0 -15 -4 -19 -16 -15 -9 3 -20 6 -25 6 -17 0 -9 20 9 21 16 1 16 2
0 6 -21 5 -21 4 -9 36 6 16 20 26 38 29 15 3 36 9 46 13 12 5 17 2 17 -11 0
-14 3 -15 12 -6 10 10 10 15 -1 21 -11 7 -11 15 0 45 15 42 29 47 29 11 0 -36
27 -32 32 5 4 26 1 30 -18 30 -32 0 -39 17 -13 30 31 17 12 29 -59 36 -53 6
-62 4 -62 -9 0 -11 12 -17 43 -20 25 -2 15 -4 -28 -4 l-69 -1 27 24 c19 16 42
24 70 25 38 1 37 2 -17 10 -33 5 -63 14 -66 19 -4 6 -32 14 -63 17 -39 4 -57
10 -57 19 0 10 -13 14 -40 14 -22 0 -40 5 -40 10 0 6 -10 10 -21 10 -17 0 -19
-3 -10 -14 20 -24 -6 -29 -40 -9 -24 13 -33 15 -36 6 -6 -18 -28 -16 -43 2
-10 12 -10 18 0 30 6 8 8 20 4 26 -12 20 -23 -20 -18 -61 l5 -35 -19 23 c-11
12 -25 22 -30 22 -5 0 -12 10 -15 21 -5 18 -11 21 -36 16 -17 -4 -33 -2 -36 3
-3 6 -16 10 -28 10 -22 0 -22 1 3 21 17 15 19 19 7 15 -11 -3 -16 -2 -12 4 3
6 13 10 21 10 8 0 14 4 14 8 0 9 62 29 95 30 11 1 29 -5 40 -14z m416 -41
c-17 -11 -28 -12 -49 -4 l-27 11 28 -5 c16 -3 26 -2 24 2 -3 4 6 9 20 9 24 2
24 2 4 -13z m-96 -3 c-3 -5 -14 -10 -23 -9 -14 0 -13 2 3 9 27 11 27 11 20 0z
m-565 -126 c0 -8 5 -14 12 -14 6 0 9 -3 5 -6 -3 -3 8 -19 26 -35 17 -16 28
-29 24 -29 -5 0 -2 -7 7 -15 8 -8 19 -15 25 -15 6 0 11 -7 11 -15 0 -9 7 -18
15 -21 8 -4 15 -12 15 -19 0 -15 22 -25 52 -25 14 0 18 -5 15 -15 -8 -19 13
-31 25 -14 7 10 7 7 3 -8 -5 -17 -2 -23 9 -23 9 0 16 -7 16 -15 0 -8 10 -26
22 -40 17 -20 31 -25 69 -25 26 0 51 -5 55 -11 4 -7 21 -9 40 -6 31 5 33 4 19
-9 -21 -21 -28 -55 -17 -84 9 -24 12 -24 84 -21 79 3 106 -9 67 -29 -14 -8
-19 -18 -16 -31 3 -10 1 -19 -4 -19 -5 0 -9 -4 -9 -10 0 -5 14 -10 31 -10 17
0 28 -4 24 -10 -3 -5 -19 -10 -36 -10 -41 0 -41 -36 0 -45 24 -5 29 -11 28
-33 -1 -15 -6 -30 -12 -34 -5 -4 -1 -10 10 -14 11 -5 26 -14 33 -21 22 -21 32
-15 32 18 0 21 -4 30 -13 26 -7 -3 -13 3 -13 14 0 15 3 16 16 5 29 -25 40 -28
34 -9 -4 14 -1 12 13 -5 10 -13 22 -20 26 -16 4 4 -3 19 -15 32 l-23 25 25
-17 c54 -35 115 -106 116 -136 1 -17 -2 -30 -6 -30 -4 0 -10 -7 -13 -14 -4 -9
-1 -13 6 -10 15 5 61 -61 53 -75 -4 -6 6 -8 24 -6 22 3 29 1 23 -8 -4 -7 0 -7
10 2 16 12 22 8 18 -12 -1 -5 3 -6 9 -2 11 7 7 17 -19 50 -19 25 25 -22 57
-60 12 -15 19 -32 15 -37 -4 -7 -1 -8 6 -4 8 5 14 0 18 -13 3 -12 8 -21 12
-21 4 0 17 -18 30 -40 12 -22 18 -40 12 -40 -5 0 -14 12 -19 28 -6 15 -11 20
-11 12 -1 -8 6 -28 14 -44 19 -36 19 -42 0 -26 -9 7 -19 10 -22 6 -4 -4 -1
-11 7 -16 8 -6 10 -10 5 -10 -6 0 -16 5 -23 12 -7 7 -12 8 -12 2 0 -5 5 -15
12 -22 9 -9 9 -15 0 -24 -9 -9 -12 -8 -12 5 0 10 -8 17 -17 17 -14 0 -15 -2
-5 -9 17 -11 -17 -21 -72 -21 -61 0 -32 -14 42 -20 40 -3 67 -10 70 -17 2 -8
-6 -13 -20 -13 -35 0 -78 -23 -78 -41 0 -14 9 -16 51 -13 55 3 81 17 72 40 -4
10 3 14 22 14 15 0 24 4 20 10 -3 6 -3 20 1 32 6 19 7 19 16 4 5 -9 14 -14 19
-11 5 4 7 11 4 16 -4 5 -4 9 -1 9 6 0 72 -118 81 -145 6 -17 5 -17 -5 -5 -9
12 -10 11 -5 -7 3 -12 1 -24 -5 -28 -5 -3 -10 2 -10 11 0 10 -3 15 -6 11 -3
-3 -3 -15 1 -27 5 -17 9 -19 21 -9 12 9 14 8 13 -7 -4 -40 2 -52 26 -56 21 -4
23 -3 14 9 -7 7 -9 16 -6 20 7 6 53 -91 59 -123 2 -16 -5 -20 -47 -26 -27 -3
-71 -7 -98 -7 l-47 -1 15 24 c15 23 15 24 -17 29 -19 2 -36 0 -40 -7 -9 -12
-28 9 -28 32 0 20 -21 14 -27 -8 -3 -11 -12 -20 -20 -20 -7 0 -24 -6 -36 -14
-18 -11 -52 -14 -89 -7 -5 0 -8 6 -8 12 0 8 4 8 13 1 7 -5 21 -6 32 -1 19 7
19 8 -2 8 -12 1 -30 4 -40 8 -16 6 -15 8 7 14 l25 7 -27 1 c-31 1 -37 15 -12
25 9 4 14 13 10 21 -7 20 11 19 32 -1 14 -15 16 -15 23 4 4 11 17 27 29 35 12
8 17 17 12 21 -5 3 -19 -4 -31 -15 -19 -18 -23 -19 -37 -5 -8 9 -11 16 -5 16
14 0 51 41 51 57 0 7 -12 16 -27 19 -16 4 -40 15 -54 25 -24 17 -27 17 -43 1
-15 -15 -18 -15 -26 -2 -7 11 -4 17 10 24 11 5 20 13 20 18 0 13 -48 9 -52 -4
-3 -7 -10 9 -17 36 -9 37 -9 51 -1 56 24 15 6 53 -30 65 -43 15 -60 4 -60 -36
0 -16 -4 -29 -10 -29 -5 0 -10 18 -10 40 0 34 3 40 21 40 16 0 19 4 14 18 -15
34 -17 62 -6 62 6 0 11 7 11 15 0 8 -6 15 -12 15 -23 0 -39 16 -32 33 3 9 17
17 30 17 25 0 30 15 15 39 -6 10 -22 12 -56 9 -40 -5 -48 -3 -61 18 -13 19
-14 28 -3 59 7 19 19 35 26 35 7 0 13 4 13 9 0 13 -55 24 -80 16 -14 -4 -20
-2 -20 9 0 23 -19 30 -38 13 -14 -13 -19 -13 -29 -1 -7 7 -13 16 -13 19 0 12
-29 35 -44 35 -10 0 -16 -8 -15 -22 0 -13 3 -17 6 -10 6 15 33 16 33 2 0 -6
-8 -25 -17 -43 l-17 -32 -6 27 c-3 15 -12 36 -21 46 -8 10 -18 26 -22 36 -10
25 -28 9 -21 -19 7 -27 -12 -43 -29 -25 -9 10 -9 14 1 17 6 3 12 20 12 39 0
21 4 33 10 29 6 -3 24 3 40 15 17 12 30 17 30 11 0 -6 -5 -11 -11 -11 -5 0 -7
-5 -3 -12 6 -9 9 -9 12 0 2 7 13 12 24 12 17 0 18 3 8 15 -7 8 -22 15 -35 15
-12 0 -30 9 -40 20 -11 12 -26 18 -39 15 -12 -3 -27 -1 -35 4 -16 10 -6 31 15
31 22 0 17 28 -7 35 -14 5 -25 1 -34 -12 -13 -17 -14 -17 -15 0 0 9 5 17 10
17 6 0 10 4 10 10 0 5 -13 7 -29 4 -16 -4 -32 -1 -35 5 -5 7 2 11 18 11 40 0
30 17 -14 24 -31 5 -40 11 -40 26 0 10 -4 22 -10 25 -5 3 -10 15 -10 26 0 12
-5 19 -12 17 -18 -6 -16 -42 2 -49 11 -5 7 -9 -14 -14 -19 -5 -31 -4 -36 5
-13 22 -30 1 -30 -38 l0 -36 -29 32 c-17 17 -32 28 -36 23 -3 -5 -1 -12 5 -16
5 -3 10 -16 10 -28 -1 -21 -1 -21 -15 -3 -9 12 -20 16 -32 12 -14 -6 -15 -9
-4 -15 9 -6 12 -18 7 -37 -4 -16 -7 -35 -8 -42 -2 -21 -21 -7 -29 21 -8 30
-20 140 -13 115 3 -10 12 -18 20 -18 17 0 19 30 2 30 -7 0 -5 5 5 11 9 5 17
21 17 34 0 13 6 28 13 32 6 4 12 13 13 18 0 6 4 27 8 48 10 46 -6 71 -41 62
-15 -3 -23 -1 -24 7 0 7 -5 4 -10 -7 -16 -33 -1 86 17 143 12 37 22 52 38 54
27 5 36 0 36 -18z m450 14 c0 -14 -30 -48 -42 -48 -15 0 -8 32 10 46 21 17 32
17 32 2z m-115 -78 c-9 -3 -32 -4 -49 -1 l-31 5 35 6 c42 7 74 0 45 -10z m39
-38 c2 -4 1 -14 -4 -22 -7 -11 -11 -11 -24 -1 -9 7 -13 17 -10 22 7 11 31 12
38 1z m-134 -12 c0 -5 -12 -10 -26 -10 -14 0 -23 4 -19 10 3 6 15 10 26 10 10
0 19 -4 19 -10z m80 -5 c0 -9 -6 -12 -15 -9 -8 4 -15 10 -15 15 0 5 7 9 15 9
8 0 15 -7 15 -15z m-126 -34 c3 -5 -3 -11 -14 -14 -13 -3 -20 0 -20 9 0 15 26
19 34 5z m96 -71 c0 -5 -2 -10 -4 -10 -3 0 -8 5 -11 10 -3 6 -1 10 4 10 6 0
11 -4 11 -10z m90 -12 c0 -19 -2 -20 -10 -8 -13 19 -13 30 0 30 6 0 10 -10 10
-22z m72 -63 l30 7 -22 -22 c-27 -27 -53 -17 -58 21 -2 21 -1 22 9 6 8 -14 18
-17 41 -12z m132 19 c18 -7 12 -24 -10 -24 -8 0 -14 7 -14 15 0 17 2 18 24 9z
m61 -111 c3 -13 1 -31 -4 -41 -11 -17 -13 -13 -15 23 -1 15 -8 20 -31 20 -25
0 -31 -5 -36 -30 -5 -24 -7 -27 -13 -12 -11 23 0 48 24 54 11 3 20 11 20 19 0
23 48 -5 55 -33z m62 41 c-3 -3 -12 -4 -19 -1 -8 3 -5 6 6 6 11 1 17 -2 13 -5z
m-187 -34 c0 -5 -4 -10 -10 -10 -5 0 -10 5 -10 10 0 6 5 10 10 10 6 0 10 -4
10 -10z m347 4 c-3 -3 -12 -4 -19 -1 -8 3 -5 6 6 6 11 1 17 -2 13 -5z m-57
-51 c0 -19 -3 -24 -10 -17 -6 6 -8 18 -4 27 9 24 14 21 14 -10z m-282 -10 c2
-8 -6 -13 -22 -13 -25 0 -33 10 -19 24 10 10 36 3 41 -11z m229 -9 c-3 -3 -12
-4 -19 -1 -8 3 -5 6 6 6 11 1 17 -2 13 -5z m530 0 c-3 -3 -12 -4 -19 -1 -8 3
-5 6 6 6 11 1 17 -2 13 -5z m-470 -29 c0 -8 -4 -12 -9 -9 -5 3 -6 10 -3 15 9
13 12 11 12 -6z m505 0 c0 -5 -5 -11 -11 -13 -6 -2 -11 4 -11 13 0 9 5 15 11
13 6 -2 11 -8 11 -13z m-1282 -21 c0 -8 -4 -12 -10 -9 -5 3 -10 13 -10 21 0 8
5 12 10 9 6 -3 10 -13 10 -21z m193 -31 c-7 -2 -19 -2 -25 0 -7 3 -2 5 12 5
14 0 19 -2 13 -5z m1090 0 c-7 -2 -19 -2 -25 0 -7 3 -2 5 12 5 14 0 19 -2 13
-5z m-1196 -9 c-3 -3 -12 -4 -19 -1 -8 3 -5 6 6 6 11 1 17 -2 13 -5z m-180
-56 c-3 -8 -6 -5 -6 6 -1 11 2 17 5 13 3 -3 4 -12 1 -19z m26 7 c-3 -9 -8 -14
-10 -11 -3 3 -2 9 2 15 9 16 15 13 8 -4z m367 1 c0 -3 -4 -8 -10 -11 -5 -3
-10 -1 -10 4 0 6 5 11 10 11 6 0 10 -2 10 -4z m351 -58 c-11 -11 -13 -10 -6 0
4 8 -1 23 -11 35 -18 22 -18 22 6 0 20 -19 22 -25 11 -35z m-661 27 c0 -12
-19 -12 -23 0 -4 9 -1 12 9 8 7 -3 14 -7 14 -8z m107 9 c-3 -3 -12 -4 -19 -1
-8 3 -5 6 6 6 11 1 17 -2 13 -5z m-77 -44 c0 -5 -4 -10 -10 -10 -5 0 -10 5
-10 10 0 6 5 10 10 10 6 0 10 -4 10 -10z m87 -46 c-3 -3 -12 -4 -19 -1 -8 3
-5 6 6 6 11 1 17 -2 13 -5z m113 -3 c0 -6 -4 -13 -10 -16 -5 -3 -10 1 -10 9 0
9 5 16 10 16 6 0 10 -4 10 -9z m797 -18 c0 -9 -4 -10 -14 -2 -7 6 -13 12 -13
14 0 1 6 2 13 2 8 0 14 -6 14 -14z m-971 -81 c22 -31 52 -46 68 -33 9 8 18 7
32 -4 13 -10 15 -14 5 -15 -8 0 -12 -2 -9 -5 3 -3 13 -3 22 1 11 4 16 18 16
45 0 54 17 49 22 -6 2 -31 -1 -46 -10 -50 -17 -6 -9 -31 8 -27 7 1 18 -5 24
-14 7 -9 23 -17 37 -17 21 -2 24 -6 21 -24 -4 -20 -10 -23 -52 -23 -39 0 -50
-4 -55 -19 -3 -11 -12 -22 -20 -25 -9 -3 -12 0 -9 9 3 7 -3 18 -14 24 -16 9
-19 7 -18 -7 0 -9 6 -20 11 -24 6 -5 6 -8 -1 -8 -18 0 -71 65 -100 121 -14 28
-21 49 -16 45 5 -3 9 9 9 26 0 27 -2 29 -13 13 -12 -15 -13 -15 -24 5 -6 12
-9 24 -6 27 3 3 8 -2 12 -11 3 -9 10 -14 15 -11 4 3 6 12 3 20 -9 22 24 12 42
-13z m60 17 c5 -8 9 -8 14 1 4 7 16 10 26 8 15 -3 14 -5 -8 -20 -29 -19 -58
-15 -58 8 0 17 16 19 26 3z m137 -16 c-8 -51 -14 -60 -23 -38 -15 37 -11 65 9
65 14 0 17 -6 14 -27z m37 -15 c0 -49 -5 -47 -14 5 -4 23 -3 37 4 37 5 0 10
-19 10 -42z m555 -6 c-3 -8 0 -21 7 -30 12 -14 11 -14 -9 -1 -26 16 -29 25
-10 33 10 5 10 7 0 12 -7 3 -13 10 -13 16 0 6 6 5 15 -2 9 -7 13 -20 10 -28z
m-503 16 c-9 -9 -15 -9 -24 0 -9 9 -7 12 12 12 19 0 21 -3 12 -12z m108 -8 c0
-5 -7 -10 -15 -10 -8 0 -15 5 -15 10 0 6 7 10 15 10 8 0 15 -4 15 -10z m973
-20 c3 -11 1 -18 -4 -14 -5 3 -9 12 -9 20 0 20 7 17 13 -6z m-542 -7 c13 -16
12 -17 -3 -4 -10 7 -18 15 -18 17 0 8 8 3 21 -13z m-7 -38 c-4 -8 -1 -22 6
-30 8 -9 8 -15 2 -15 -13 0 -26 36 -17 50 9 15 15 12 9 -5z m566 5 c0 -5 -4
-10 -10 -10 -5 0 -10 5 -10 10 0 6 5 10 10 10 6 0 10 -4 10 -10z m-1180 -10
c0 -5 -4 -10 -9 -10 -6 0 -13 5 -16 10 -3 6 1 10 9 10 9 0 16 -4 16 -10z m641
-17 c13 -16 12 -17 -3 -4 -17 13 -22 21 -14 21 2 0 10 -8 17 -17z m597 -65 c6
-46 7 -87 2 -92 -5 -5 -6 -15 -3 -22 3 -8 0 -14 -6 -14 -6 0 -11 -6 -11 -13 0
-8 -9 -22 -20 -32 -13 -11 -18 -25 -14 -37 3 -10 1 -18 -5 -18 -6 0 -11 -9
-11 -20 0 -11 5 -20 11 -20 6 0 13 9 16 20 7 25 30 26 38 1 6 -21 -6 -111 -25
-181 l-12 -44 -34 77 c-37 85 -42 101 -19 71 14 -19 14 -18 15 3 0 12 -11 38
-24 57 -23 35 -39 39 -30 8 7 -23 -42 52 -73 113 -17 34 -20 45 -9 36 17 -15
23 -2 6 15 -6 6 -8 19 -4 29 6 16 8 15 21 -6 9 -14 12 -17 9 -6 -3 10 -6 24
-6 32 0 7 -9 15 -21 18 -20 5 -20 6 -2 33 17 27 18 28 21 6 4 -25 22 -31 22
-7 0 8 9 15 20 15 11 0 27 11 36 25 13 20 20 23 34 15 26 -14 40 -12 40 5 0 8
6 15 14 15 9 0 17 -24 24 -82z m-1101 66 c-3 -3 -12 -4 -19 -1 -8 3 -5 6 6 6
11 1 17 -2 13 -5z m293 -14 c0 -5 -9 -10 -21 -10 -11 0 -17 5 -14 10 3 6 13
10 21 10 8 0 14 -4 14 -10z m-97 -57 c-13 -2 -33 -2 -45 0 -13 2 -3 4 22 4 25
0 35 -2 23 -4z m-303 -48 c0 -18 5 -25 20 -25 11 0 20 -4 20 -10 0 -5 9 -10
20 -10 13 0 20 7 20 20 0 11 -5 20 -12 20 -6 0 -8 3 -5 6 11 12 38 -18 32 -36
-4 -11 6 -25 30 -42 28 -20 33 -27 21 -31 -19 -8 -21 -33 -3 -40 7 -3 5 -6 -5
-6 -13 -1 -18 -12 -20 -48 -2 -29 -8 -48 -17 -51 -9 -3 -11 0 -6 8 5 9 4 11
-4 6 -6 -4 -9 -11 -6 -16 3 -4 -1 -10 -9 -13 -16 -6 -80 56 -69 67 4 4 -1 4
-12 0 -19 -7 -19 -7 -2 13 16 18 16 21 1 34 -11 9 -14 22 -10 42 5 24 4 27 -8
18 -19 -16 -41 10 -24 27 9 9 17 7 34 -9 18 -17 22 -18 27 -5 4 9 3 16 -1 16
-5 0 -14 16 -22 35 -11 28 -19 35 -42 35 -15 0 -28 5 -28 10 0 6 18 10 40 10
36 0 40 -2 40 -25z m-84 -7 c4 -7 3 -8 -4 -4 -15 9 -15 1 -1 -27 9 -19 7 -18
-10 3 -14 18 -16 27 -8 32 15 10 15 10 23 -4z m264 8 c0 -3 -4 -8 -10 -11 -5
-3 -10 -1 -10 4 0 6 5 11 10 11 6 0 10 -2 10 -4z m140 -16 c0 -17 -5 -19 -24
-14 -29 7 -41 -12 -45 -71 -3 -51 -10 -75 -22 -75 -12 0 -12 107 1 115 6 3 10
17 10 30 0 18 4 22 19 18 10 -3 22 0 25 6 12 19 36 12 36 -9z m9 -82 c-2 -31
-2 -31 -6 -5 -7 42 -23 32 -25 -15 -1 -39 -2 -40 -5 -10 -5 42 2 62 22 62 11
0 15 -9 14 -32z m-373 -40 c-5 14 -3 22 4 22 6 0 11 -10 10 -22 -3 -36 0 -44
9 -29 5 8 11 9 15 3 7 -12 -17 -23 -30 -13 -5 3 -20 20 -34 36 l-25 30 29 -25
c28 -25 28 -25 22 -2z m471 -90 c-3 -8 -6 -5 -6 6 -1 11 2 17 5 13 3 -3 4 -12
1 -19z m-276 -45 c-10 -16 -11 -15 -5 7 6 24 6 24 -13 8 -11 -10 -23 -18 -27
-18 -5 0 2 9 15 19 27 22 47 12 30 -16z m169 -13 c0 -5 -4 -10 -10 -10 -5 0
-10 5 -10 10 0 6 5 10 10 10 6 0 10 -4 10 -10z m140 -50 c9 0 11 -3 4 -10 -14
-14 -116 -17 -121 -3 -4 12 47 23 82 17 11 -2 27 -4 35 -4z m180 -10 c0 -5 -4
-10 -9 -10 -6 0 -13 5 -16 10 -3 6 1 10 9 10 9 0 16 -4 16 -10z m-340 -40 c6
-10 22 -13 49 -11 47 3 57 -18 17 -37 -26 -12 -69 -5 -60 9 3 5 -1 6 -8 4 -8
-3 -22 2 -33 10 -19 16 -19 16 5 10 22 -5 23 -4 7 5 -10 7 -24 9 -31 7 -7 -3
-13 0 -13 7 0 17 56 14 67 -4z m268 -25 c-3 -3 -9 2 -12 12 -6 14 -5 15 5 6 7
-7 10 -15 7 -18z"/>
<path d="M2432 5435 c8 -18 19 -25 40 -25 28 0 28 0 12 25 -10 15 -26 25 -40
25 -22 0 -23 -2 -12 -25z"/>
<path d="M2867 5453 c-11 -10 -8 -20 7 -26 10 -4 12 0 9 14 -6 21 -7 22 -16
12z"/>
<path d="M2911 5423 c-18 -19 -10 -25 12 -8 10 7 15 15 10 18 -4 3 -14 -2 -22
-10z"/>
<path d="M2956 5408 c3 -4 -3 -8 -12 -8 -33 0 -6 -11 37 -15 30 -3 39 -1 29 5
-8 5 -24 7 -35 3 -17 -5 -18 -3 -8 9 10 12 10 15 -2 15 -8 0 -12 -4 -9 -9z"/>
<path d="M2800 5403 c0 -6 -12 -11 -26 -10 -15 1 -29 -3 -31 -9 -4 -13 41 -24
97 -24 32 0 39 -4 44 -25 4 -14 4 -30 1 -35 -7 -12 18 -13 29 -3 4 4 15 8 24
8 9 0 18 9 20 19 3 14 0 17 -12 13 -8 -3 -19 -1 -23 6 -5 7 -15 12 -23 12 -9
0 -15 9 -14 23 1 22 0 22 -23 7 -23 -15 -25 -15 -43 7 -11 13 -19 18 -20 11z"/>
<path d="M2905 5380 c3 -5 8 -10 11 -10 2 0 4 5 4 10 0 6 -5 10 -11 10 -5 0
-7 -4 -4 -10z"/>
<path d="M3212 5247 c10 -8 14 -18 10 -22 -4 -5 -1 -5 6 -1 17 10 15 14 -10
26 -21 10 -21 10 -6 -3z"/>
<path d="M2960 5165 c0 -8 5 -15 10 -15 6 0 10 7 10 15 0 8 -4 15 -10 15 -5 0
-10 -7 -10 -15z"/>
<path d="M2960 5120 c0 -5 4 -10 9 -10 6 0 13 5 16 10 3 6 -1 10 -9 10 -9 0
-16 -4 -16 -10z"/>
<path d="M3036 5117 c3 -10 9 -15 12 -12 3 3 0 11 -7 18 -10 9 -11 8 -5 -6z"/>
<path d="M3076 5114 c-8 -21 -1 -28 18 -21 9 4 13 13 10 22 -8 20 -20 19 -28
-1z"/>
<path d="M2922 5107 c-17 -20 1 -57 27 -57 22 0 36 29 21 44 -7 7 -10 4 -10
-9 -1 -15 -4 -13 -13 9 -11 25 -14 27 -25 13z"/>
<path d="M2800 5082 c0 -7 69 -32 90 -32 6 0 5 8 -2 20 -9 14 -24 20 -50 20
-21 0 -38 -3 -38 -8z"/>
<path d="M3247 5084 c-4 -4 -7 -14 -7 -21 0 -19 42 -13 47 7 4 12 3 12 -5 1
-8 -11 -11 -11 -19 3 -5 9 -12 13 -16 10z"/>
<path d="M3000 5064 c0 -9 5 -14 12 -12 18 6 21 28 4 28 -9 0 -16 -7 -16 -16z"/>
<path d="M3121 5062 c-1 -26 21 -38 47 -26 14 6 12 8 -10 12 -15 2 -29 11 -31
20 -3 12 -5 10 -6 -6z"/>
<path d="M3065 5050 c3 -5 11 -10 16 -10 6 0 7 5 4 10 -3 6 -11 10 -16 10 -6
0 -7 -4 -4 -10z"/>
<path d="M3040 5019 c0 -5 5 -7 10 -4 6 3 10 8 10 11 0 2 -4 4 -10 4 -5 0 -10
-5 -10 -11z"/>
<path d="M3380 4930 c0 -5 5 -10 11 -10 5 0 7 5 4 10 -3 6 -8 10 -11 10 -2 0
-4 -4 -4 -10z"/>
<path d="M3185 4900 c-18 -8 -17 -9 8 -9 16 -1 26 3 22 9 -3 6 -7 10 -8 9 -1
0 -11 -4 -22 -9z"/>
<path d="M3343 4893 c9 -2 23 -2 30 0 6 3 -1 5 -18 5 -16 0 -22 -2 -12 -5z"/>
<path d="M3305 4880 c3 -5 8 -10 11 -10 2 0 4 5 4 10 0 6 -5 10 -11 10 -5 0
-7 -4 -4 -10z"/>
<path d="M3143 4873 c9 -2 25 -2 35 0 9 3 1 5 -18 5 -19 0 -27 -2 -17 -5z"/>
<path d="M3277 4816 c-4 -10 -1 -13 8 -9 8 3 12 9 9 14 -7 12 -11 11 -17 -5z"/>
<path d="M3230 4780 c0 -5 4 -10 9 -10 6 0 13 5 16 10 3 6 -1 10 -9 10 -9 0
-16 -4 -16 -10z"/>
<path d="M3070 4776 c0 -2 8 -10 18 -17 15 -13 16 -12 3 4 -13 16 -21 21 -21
13z"/>
<path d="M3180 4715 c-7 -8 -17 -12 -24 -8 -6 3 -3 -2 6 -12 20 -21 27 -18 33
14 5 25 2 26 -15 6z"/>
<path d="M3400 4680 c-45 -7 -44 -7 18 -8 36 -1 62 2 62 8 0 11 -11 11 -80 0z"/>
<path d="M2187 5213 c-10 -3 -16 -10 -14 -16 6 -20 24 -18 30 3 3 11 4 19 4
19 -1 -1 -10 -3 -20 -6z"/>
<path d="M2160 5138 c0 -36 4 -35 14 5 4 16 2 27 -4 27 -5 0 -10 -14 -10 -32z"/>
<path d="M2204 5161 c3 -5 15 -7 26 -4 28 7 25 13 -6 13 -14 0 -23 -4 -20 -9z"/>
<path d="M2368 4953 c6 -2 18 -2 25 0 6 3 1 5 -13 5 -14 0 -19 -2 -12 -5z"/>
<path d="M2536 4883 c12 -2 27 -16 33 -30 8 -18 15 -23 22 -16 19 19 -12 53
-46 52 -21 -1 -24 -3 -9 -6z"/>
<path d="M2488 4853 c7 -3 16 -2 19 1 4 3 -2 6 -13 5 -11 0 -14 -3 -6 -6z"/>
<path d="M2520 4820 l-45 -6 40 -5 c22 -4 44 -3 49 2 15 13 5 15 -44 9z"/>
<path d="M2700 4801 c0 -17 18 -21 24 -6 3 9 0 15 -9 15 -8 0 -15 -4 -15 -9z"/>
<path d="M2670 4740 c0 -5 9 -10 21 -10 11 0 17 5 14 10 -3 6 -13 10 -21 10
-8 0 -14 -4 -14 -10z"/>
<path d="M2625 4690 c3 -5 8 -10 11 -10 2 0 4 5 4 10 0 6 -5 10 -11 10 -5 0
-7 -4 -4 -10z"/>
<path d="M2720 4665 c0 -8 -5 -15 -12 -15 -6 0 -9 -2 -6 -5 3 -3 13 -3 22 1
17 7 22 34 6 34 -5 0 -10 -7 -10 -15z"/>
<path d="M2820 4526 c0 -14 5 -28 10 -31 6 -3 10 5 10 19 0 14 -4 28 -10 31
-6 3 -10 -5 -10 -19z"/>
<path d="M2960 4446 c0 -9 5 -16 10 -16 6 0 10 4 10 9 0 6 -4 13 -10 16 -5 3
-10 -1 -10 -9z"/>
<path d="M2927 4430 c-3 -13 0 -20 9 -20 15 0 19 26 5 34 -5 3 -11 -3 -14 -14z"/>
<path d="M2980 4410 c-12 -8 -11 -10 8 -10 12 0 22 5 22 10 0 13 -11 13 -30 0z"/>
<path d="M3060 4368 c0 -9 4 -19 10 -23 5 -3 7 -12 3 -20 -3 -8 -1 -15 5 -15
19 0 20 26 1 51 -15 19 -19 20 -19 7z"/>
<path d="M3008 4357 c-38 -15 -35 -28 6 -25 26 1 32 5 28 20 -2 10 -5 18 -6
17 0 -1 -13 -6 -28 -12z"/>
<path d="M3100 4290 c0 -5 5 -10 10 -10 6 0 10 5 10 10 0 6 -4 10 -10 10 -5 0
-10 -4 -10 -10z"/>
<path d="M2897 4283 c-3 -5 -2 -15 2 -22 7 -10 10 -10 16 -1 4 6 3 16 -3 22
-5 5 -12 6 -15 1z"/>
<path d="M2951 4264 c0 -11 3 -14 6 -6 3 7 2 16 -1 19 -3 4 -6 -2 -5 -13z"/>
<path d="M3105 4240 c-3 -5 -1 -10 4 -10 6 0 11 5 11 10 0 6 -2 10 -4 10 -3 0
-8 -4 -11 -10z"/>
<path d="M3040 4230 c0 -5 5 -10 11 -10 5 0 7 5 4 10 -3 6 -8 10 -11 10 -2 0
-4 -4 -4 -10z"/>
<path d="M3120 4180 c0 -5 7 -10 15 -10 8 0 15 5 15 10 0 6 -7 10 -15 10 -8 0
-15 -4 -15 -10z"/>
<path d="M3290 4121 c0 -6 4 -13 10 -16 6 -3 7 1 4 9 -7 18 -14 21 -14 7z"/>
<path d="M3040 4090 c0 -7 14 -8 38 -4 51 9 53 14 4 14 -23 0 -42 -5 -42 -10z"/>
<path d="M3308 3843 c7 -3 16 -2 19 1 4 3 -2 6 -13 5 -11 0 -14 -3 -6 -6z"/>
<path d="M3108 3823 c7 -3 16 -2 19 1 4 3 -2 6 -13 5 -11 0 -14 -3 -6 -6z"/>
<path d="M2224 4529 c1 -18 7 -34 13 -36 9 -3 10 4 3 28 -13 43 -18 46 -16 8z"/>
<path d="M2220 4475 c0 -5 5 -17 10 -25 5 -8 10 -10 10 -5 0 6 -5 17 -10 25
-5 8 -10 11 -10 5z"/>
<path d="M2267 4386 c10 -13 19 -23 21 -21 5 5 -22 45 -31 45 -4 0 0 -11 10
-24z"/>
<path d="M3582 4146 c15 -30 16 -30 14 -3 0 13 -6 24 -13 24 -9 0 -9 -6 -1
-21z"/>
<path d="M2520 4241 c0 -17 18 -21 24 -6 3 9 0 15 -9 15 -8 0 -15 -4 -15 -9z"/>
<path d="M2560 4225 c0 -16 16 -20 24 -6 3 5 -1 11 -9 15 -9 3 -15 0 -15 -9z"/>
<path d="M2568 4173 c7 -3 16 -2 19 1 4 3 -2 6 -13 5 -11 0 -14 -3 -6 -6z"/>
<path d="M2523 4146 c-8 -10 -7 -17 7 -29 17 -14 19 -14 24 0 4 9 4 18 1 21
-3 3 -5 0 -5 -7 0 -7 -4 -10 -10 -6 -5 3 -7 12 -3 20 6 18 2 19 -14 1z"/>
<path d="M2500 4111 c0 -5 5 -13 10 -16 6 -3 10 -2 10 4 0 5 -4 13 -10 16 -5
3 -10 2 -10 -4z"/>
<path d="M2535 4070 c3 -5 8 -10 11 -10 2 0 4 5 4 10 0 6 -5 10 -11 10 -5 0
-7 -4 -4 -10z"/>
<path d="M2830 3909 c0 -6 -7 -8 -17 -4 -13 4 -15 3 -7 -5 6 -6 18 -8 27 -4
18 7 23 24 7 24 -5 0 -10 -5 -10 -11z"/>
<path d="M3930 5694 l-35 -13 50 0 c28 0 59 4 69 8 18 7 18 8 -5 14 -30 8 -36
8 -79 -9z"/>
<path d="M4826 5691 c-4 -5 -2 -12 3 -15 5 -4 12 -2 15 3 4 5 2 12 -3 15 -5 4
-12 2 -15 -3z"/>
<path d="M4000 5660 c0 -5 6 -10 14 -10 8 0 18 5 21 10 3 6 -3 10 -14 10 -12
0 -21 -4 -21 -10z"/>
<path d="M4460 5660 c0 -5 5 -10 10 -10 6 0 10 5 10 10 0 6 -4 10 -10 10 -5 0
-10 -4 -10 -10z"/>
<path d="M4700 5660 c0 -5 5 -10 10 -10 6 0 10 5 10 10 0 6 -4 10 -10 10 -5 0
-10 -4 -10 -10z"/>
<path d="M4201 5629 c-12 -35 -7 -49 15 -49 15 0 44 -23 44 -34 0 -3 -7 -6
-15 -6 -8 0 -15 -5 -15 -11 0 -6 7 -9 15 -5 13 5 14 2 4 -17 -7 -12 -16 -25
-22 -28 -5 -4 -6 -12 -2 -19 6 -9 10 -9 17 1 8 11 9 11 5 -1 -2 -8 -11 -14
-20 -14 -9 1 -28 -11 -43 -27 -22 -23 -25 -31 -15 -43 10 -11 10 -19 1 -33
-10 -16 -11 -16 -7 4 5 20 2 22 -21 16 -30 -7 -42 -20 -42 -45 0 -9 -9 -32
-20 -51 -12 -20 -19 -46 -16 -65 2 -20 0 -29 -7 -25 -6 4 -8 0 -4 -11 4 -10 3
-15 -3 -11 -9 6 -14 -8 -11 -27 0 -5 -3 -8 -9 -8 -5 0 -15 -18 -21 -40 -7 -22
-16 -37 -22 -33 -6 3 -7 2 -4 -4 3 -5 -1 -20 -10 -33 -16 -22 -17 -23 -24 -4
-5 12 -6 3 -5 -23 2 -23 0 -40 -4 -38 -4 3 -10 -7 -13 -21 -5 -27 72 -284 85
-284 3 0 14 23 23 50 10 30 21 48 27 44 7 -5 8 -2 4 5 -5 7 -3 25 4 41 10 25
15 27 31 17 21 -13 29 -8 34 25 3 12 7 37 10 53 5 26 4 27 -4 8 -6 -13 -15
-23 -21 -23 -7 0 -8 5 -3 13 8 13 10 18 12 43 1 13 4 14 16 4 12 -10 15 -7 21
14 5 21 12 26 39 26 23 0 37 7 48 23 15 22 15 22 31 2 19 -25 20 -8 2 36 -12
28 -16 31 -22 16 -3 -10 -12 -16 -18 -14 -8 3 -11 -5 -8 -27 3 -17 1 -27 -4
-23 -13 13 -11 115 3 110 6 -3 16 5 23 16 6 12 7 21 3 21 -4 0 -2 4 6 9 8 5
26 7 40 5 19 -3 22 -2 11 5 -8 5 -17 8 -21 5 -4 -2 -13 4 -20 13 -12 15 -12
16 3 10 20 -7 45 27 28 38 -10 6 47 105 77 135 9 8 13 10 9 3 -3 -6 -1 -15 5
-19 14 -8 48 33 50 61 1 17 2 17 6 3 2 -10 12 -18 21 -18 13 0 14 2 4 8 -7 5
-10 16 -6 25 5 15 -2 21 -26 19 -3 0 -5 17 -5 39 -1 44 2 46 22 22 13 -16 13
-16 3 5 -19 39 2 52 74 46 58 -5 60 -4 36 10 -18 11 -39 14 -71 10 -38 -4 -47
-2 -53 12 -6 16 -8 15 -29 -3 -26 -24 -90 -22 -80 3 3 8 -1 14 -8 14 -8 0 -5
6 7 15 16 12 16 14 2 9 -11 -4 -20 0 -23 9 -6 15 -85 21 -85 7 0 -11 27 -20
59 -20 20 0 27 -5 27 -19 0 -15 -4 -17 -17 -10 -10 5 -29 9 -43 9 -15 0 -26 6
-26 14 0 7 -6 19 -14 26 -8 6 -12 18 -9 26 3 8 3 14 0 14 -3 0 -10 -14 -16
-31z m249 -105 c0 -8 -19 -13 -24 -6 -3 5 1 9 9 9 8 0 15 -2 15 -3z m-183 -29
c0 -8 -4 -12 -9 -9 -5 3 -6 10 -3 15 9 13 12 11 12 -6z m-42 -65 c4 -6 1 -9
-7 -8 -7 2 -12 -5 -12 -14 1 -10 -2 -16 -6 -13 -5 3 -10 -1 -13 -7 -2 -7 -8
-10 -12 -5 -5 4 2 18 15 32 27 29 27 28 35 15z m-75 -115 c0 -5 -4 -4 -9 4 -7
11 -11 10 -20 -5 -8 -15 -10 -16 -11 -3 0 23 22 42 32 26 4 -6 8 -16 8 -22z
m155 -125 c-3 -5 -11 -10 -16 -10 -6 0 -7 5 -4 10 3 6 11 10 16 10 6 0 7 -4 4
-10z m-94 -143 c-10 -9 -11 -8 -5 6 3 10 9 15 12 12 3 -3 0 -11 -7 -18z m9
-64 c0 -7 -5 -13 -11 -13 -5 0 -7 4 -4 10 3 5 1 20 -5 32 -11 22 -10 22 4 4 9
-11 16 -26 16 -33z m-35 -2 c-3 -6 -11 -11 -16 -11 -5 0 -4 6 3 14 14 16 24
13 13 -3z m-28 -43 c-3 -8 -6 -5 -6 6 -1 11 2 17 5 13 3 -3 4 -12 1 -19z"/>
<path d="M4800 5608 c0 -31 3 -39 10 -28 13 20 13 57 0 65 -6 4 -10 -11 -10
-37z"/>
<path d="M5038 5643 c7 -3 16 -2 19 1 4 3 -2 6 -13 5 -11 0 -14 -3 -6 -6z"/>
<path d="M4640 5620 c0 -5 -10 -10 -22 -11 l-23 0 22 -11 c24 -12 58 5 47 23
-7 12 -24 11 -24 -1z"/>
<path d="M4058 5613 c7 -3 16 -2 19 1 4 3 -2 6 -13 5 -11 0 -14 -3 -6 -6z"/>
<path d="M5040 5605 c0 -11 11 -15 40 -15 29 0 40 4 40 15 0 11 -11 15 -40 15
-29 0 -40 -4 -40 -15z"/>
<path d="M5168 5613 c6 -2 18 -2 25 0 6 3 1 5 -13 5 -14 0 -19 -2 -12 -5z"/>
<path d="M3920 5600 c0 -5 6 -10 14 -10 8 0 18 5 21 10 3 6 -3 10 -14 10 -12
0 -21 -4 -21 -10z"/>
<path d="M4008 5603 c7 -3 16 -2 19 1 4 3 -2 6 -13 5 -11 0 -14 -3 -6 -6z"/>
<path d="M4140 5591 c0 -11 5 -23 10 -26 6 -4 10 5 10 19 0 14 -4 26 -10 26
-5 0 -10 -9 -10 -19z"/>
<path d="M4460 5600 c0 -5 12 -10 28 -9 24 0 25 1 7 9 -27 12 -35 12 -35 0z"/>
<path d="M5207 5590 c-5 -18 -14 -20 -86 -20 -47 0 -81 -4 -81 -10 0 -5 18
-10 40 -10 22 0 40 -4 40 -10 0 -5 18 -10 40 -10 22 0 40 -4 40 -10 0 -6 -30
-10 -71 -10 -59 0 -70 -3 -65 -15 3 -9 0 -15 -9 -15 -8 0 -15 -7 -15 -15 0 -9
9 -15 25 -15 18 0 23 4 19 15 -5 13 2 14 52 9 33 -4 61 -11 62 -16 9 -22 20
-4 20 35 0 23 3 59 7 80 8 39 -8 54 -18 17z"/>
<path d="M4370 5596 c0 -2 7 -7 16 -10 8 -3 12 -2 9 4 -6 10 -25 14 -25 6z"/>
<path d="M4068 5583 c-10 -3 -18 -8 -18 -13 0 -12 39 -19 46 -8 9 14 -8 25
-28 21z"/>
<path d="M4370 5566 c0 -2 7 -7 16 -10 8 -3 12 -2 9 4 -6 10 -25 14 -25 6z"/>
<path d="M4706 5541 c-3 -5 1 -11 9 -14 9 -4 12 -1 8 9 -6 16 -10 17 -17 5z"/>
<path d="M4000 5525 c0 -18 -4 -18 45 0 l40 14 -42 1 c-32 0 -43 -4 -43 -15z"/>
<path d="M4180 5520 c0 -5 5 -10 10 -10 6 0 10 5 10 10 0 6 -4 10 -10 10 -5 0
-10 -4 -10 -10z"/>
<path d="M4640 5480 c0 -5 18 -10 40 -10 22 0 40 5 40 10 0 6 -18 10 -40 10
-22 0 -40 -4 -40 -10z"/>
<path d="M4170 5455 c-7 -9 -10 -18 -6 -22 3 -3 6 -1 6 6 0 7 5 9 10 6 6 -3
10 1 10 9 0 20 -4 20 -20 1z"/>
<path d="M5285 5434 c0 -13 3 -24 8 -24 4 0 7 9 7 19 0 11 -3 22 -7 24 -5 3
-8 -6 -8 -19z"/>
<path d="M3948 5443 c6 -2 18 -2 25 0 6 3 1 5 -13 5 -14 0 -19 -2 -12 -5z"/>
<path d="M4568 5443 c7 -3 16 -2 19 1 4 3 -2 6 -13 5 -11 0 -14 -3 -6 -6z"/>
<path d="M5165 5439 c4 -6 -1 -17 -11 -24 -18 -13 -17 -14 14 -15 22 0 32 -5
32 -15 0 -8 5 -15 10 -15 6 0 10 -9 10 -20 0 -22 15 -27 26 -8 4 6 -2 19 -15
29 -20 17 -20 18 -4 28 21 11 12 24 -20 26 -12 2 -21 8 -19 14 1 6 -5 11 -14
11 -8 0 -12 -5 -9 -11z"/>
<path d="M5322 5410 c0 -14 2 -19 5 -12 2 6 2 18 0 25 -3 6 -5 1 -5 -13z"/>
<path d="M4560 5396 c0 -9 7 -12 20 -9 11 3 17 9 14 14 -8 14 -34 10 -34 -5z"/>
<path d="M4978 5403 c12 -2 32 -2 45 0 12 2 2 4 -23 4 -25 0 -35 -2 -22 -4z"/>
<path d="M4680 5380 c0 -5 5 -10 10 -10 6 0 10 5 10 10 0 6 -4 10 -10 10 -5 0
-10 -4 -10 -10z"/>
<path d="M4026 5355 c4 -8 8 -15 10 -15 2 0 4 7 4 15 0 8 -4 15 -10 15 -5 0
-7 -7 -4 -15z"/>
<path d="M4560 5350 c0 -19 20 -27 33 -13 8 7 -11 33 -24 33 -5 0 -9 -9 -9
-20z"/>
<path d="M4888 5363 c7 -3 16 -2 19 1 4 3 -2 6 -13 5 -11 0 -14 -3 -6 -6z"/>
<path d="M5286 5325 c-3 -9 -6 -22 -5 -28 0 -7 5 -1 10 12 5 13 8 26 5 28 -2
2 -6 -3 -10 -12z"/>
<path d="M4380 5321 c0 -5 5 -13 10 -16 6 -3 10 -2 10 4 0 5 -4 13 -10 16 -5
3 -10 2 -10 -4z"/>
<path d="M4040 5305 c0 -8 4 -15 10 -15 5 0 7 7 4 15 -4 8 -8 15 -10 15 -2 0
-4 -7 -4 -15z"/>
<path d="M4880 5295 c0 -11 11 -15 48 -14 26 1 38 3 27 6 -11 3 -24 9 -29 14
-16 14 -46 10 -46 -6z"/>
<path d="M4348 5270 c-9 -17 -14 -30 -10 -30 4 0 15 14 24 30 9 17 14 30 10
30 -4 0 -15 -14 -24 -30z"/>
<path d="M4560 5270 c0 -5 5 -10 11 -10 5 0 7 5 4 10 -3 6 -8 10 -11 10 -2 0
-4 -4 -4 -10z"/>
<path d="M4782 5244 l-10 -34 36 1 c24 1 29 3 15 6 -24 5 -32 38 -11 45 8 3 7
6 -4 10 -11 5 -18 -3 -26 -28z"/>
<path d="M5167 5253 c-13 -12 -7 -23 13 -23 11 0 20 7 20 15 0 15 -21 21 -33
8z"/>
<path d="M4356 5233 c-6 -14 -5 -15 5 -6 7 7 10 15 7 18 -3 3 -9 -2 -12 -12z"/>
<path d="M4855 5241 c-3 -5 -2 -11 2 -14 14 -7 103 5 103 14 0 12 -97 12 -105
0z"/>
<path d="M4013 5203 c-7 -15 -11 -29 -8 -31 3 -3 5 1 5 8 0 10 4 8 13 -4 12
-16 14 -16 25 11 12 27 12 27 -4 8 -16 -19 -16 -19 -10 8 8 35 -5 35 -21 0z"/>
<path d="M4316 5222 c-3 -5 1 -9 9 -9 8 0 12 4 9 9 -3 4 -7 8 -9 8 -2 0 -6 -4
-9 -8z"/>
<path d="M4978 5213 c-10 -2 -18 -11 -18 -19 0 -20 14 -17 35 6 18 20 16 22
-17 13z"/>
<path d="M5112 5211 c-11 -7 -11 -9 1 -14 16 -6 27 0 27 15 0 10 -11 10 -28
-1z"/>
<path d="M4890 5175 c-15 -18 2 -45 30 -45 10 0 23 7 30 15 15 18 -2 45 -30
45 -10 0 -23 -7 -30 -15z"/>
<path d="M4328 5163 c7 -3 16 -2 19 1 4 3 -2 6 -13 5 -11 0 -14 -3 -6 -6z"/>
<path d="M3998 5140 c-11 -12 -13 -22 -7 -26 13 -8 22 1 26 26 3 24 3 24 -19
0z"/>
<path d="M4540 5150 c0 -5 5 -10 10 -10 6 0 10 5 10 10 0 6 -4 10 -10 10 -5 0
-10 -4 -10 -10z"/>
<path d="M4630 5120 c0 -5 7 -7 15 -4 8 4 15 8 15 10 0 2 -7 4 -15 4 -8 0 -15
-4 -15 -10z"/>
<path d="M4720 5117 c0 -7 -12 -18 -27 -24 -27 -11 -27 -11 -4 -12 13 -1 30 7
37 17 16 21 17 32 4 32 -5 0 -10 -6 -10 -13z"/>
<path d="M4760 5120 c0 -5 6 -10 14 -10 8 0 18 5 21 10 3 6 -3 10 -14 10 -12
0 -21 -4 -21 -10z"/>
<path d="M4836 5109 c15 -14 31 -19 53 -17 30 3 31 4 17 23 -14 17 -17 18 -27
5 -8 -11 -12 -12 -16 -2 -2 6 -14 12 -26 12 l-21 0 20 -21z"/>
<path d="M4582 5109 c2 -7 10 -15 17 -17 8 -3 12 1 9 9 -2 7 -10 15 -17 17 -8
3 -12 -1 -9 -9z"/>
<path d="M4545 5081 c-3 -5 -1 -12 5 -16 5 -3 10 1 10 9 0 18 -6 21 -15 7z"/>
<path d="M4930 5080 c0 -5 5 -10 11 -10 5 0 7 5 4 10 -3 6 -8 10 -11 10 -2 0
-4 -4 -4 -10z"/>
<path d="M4790 5060 c0 -5 7 -10 15 -10 8 0 15 5 15 10 0 6 -7 10 -15 10 -8 0
-15 -4 -15 -10z"/>
<path d="M4640 5042 c0 -22 22 -72 33 -72 11 0 9 48 -3 55 -17 10 -11 23 13
28 16 3 13 5 -10 6 -26 1 -33 -3 -33 -17z"/>
<path d="M3860 5043 c5 -2 8 -9 4 -14 -3 -5 0 -9 6 -9 15 0 7 23 -8 26 -7 1
-8 0 -2 -3z"/>
<path d="M4321 5024 c0 -11 3 -14 6 -6 3 7 2 16 -1 19 -3 4 -6 -2 -5 -13z"/>
<path d="M4370 5020 c0 -5 5 -10 10 -10 6 0 10 -6 10 -14 0 -16 18 -31 27 -23
6 7 -29 56 -39 57 -5 0 -8 -4 -8 -10z"/>
<path d="M4790 5019 c0 -5 5 -7 10 -4 6 3 10 8 10 11 0 2 -4 4 -10 4 -5 0 -10
-5 -10 -11z"/>
<path d="M4721 4998 c5 -10 14 -18 19 -18 6 0 10 8 10 18 0 11 -7 18 -19 18
-16 0 -17 -4 -10 -18z"/>
<path d="M4340 4994 c0 -8 5 -12 10 -9 6 4 8 11 5 16 -9 14 -15 11 -15 -7z"/>
<path d="M5112 4973 c-10 -4 -10 -8 -1 -19 6 -8 16 -14 21 -14 7 0 6 5 -1 13
-6 8 -8 17 -4 20 7 8 4 8 -15 0z"/>
<path d="M4570 4960 c0 -5 5 -10 10 -10 6 0 10 5 10 10 0 6 -4 10 -10 10 -5 0
-10 -4 -10 -10z"/>
<path d="M4397 4929 c6 -22 23 -26 23 -5 0 8 -6 16 -14 19 -10 4 -12 0 -9 -14z"/>
<path d="M4308 4933 c22 -9 12 -22 -20 -26 -23 -3 -16 -4 20 -5 56 -2 69 12
26 28 -25 10 -50 13 -26 3z"/>
<path d="M4290 4882 c0 -5 9 -17 20 -27 20 -18 25 -11 14 19 -6 17 -34 23 -34
8z"/>
<path d="M4352 4865 c11 -25 19 -30 31 -19 10 10 -12 44 -28 44 -12 0 -12 -5
-3 -25z"/>
<path d="M4420 4880 c0 -5 4 -10 9 -10 6 0 13 5 16 10 3 6 -1 10 -9 10 -9 0
-16 -4 -16 -10z"/>
<path d="M5121 4877 c-1 -21 21 -18 27 4 3 12 2 12 -6 0 -8 -11 -10 -11 -15 0
-4 10 -6 8 -6 -4z"/>
<path d="M4490 4860 c0 -5 5 -10 10 -10 6 0 10 5 10 10 0 6 -4 10 -10 10 -5 0
-10 -4 -10 -10z"/>
<path d="M4198 4828 c12 -12 25 -19 28 -15 4 4 -1 14 -12 22 -29 22 -41 18
-16 -7z"/>
<path d="M4253 4774 c-1 -23 2 -34 10 -31 15 5 17 67 2 67 -5 0 -11 -16 -12
-36z"/>
<path d="M4143 4769 c-3 -11 -9 -19 -14 -19 -5 0 -9 -4 -9 -10 0 -5 7 -10 15
-10 8 0 15 6 15 13 0 9 2 9 9 -1 4 -8 19 -12 32 -10 18 2 24 9 24 28 0 22 -5
25 -34 26 -25 1 -35 -4 -38 -17z"/>
<path d="M4307 4774 c-4 -4 -4 -10 -2 -14 6 -10 55 0 55 11 0 10 -43 12 -53 3z"/>
<path d="M4758 4723 c7 -3 16 -2 19 1 4 3 -2 6 -13 5 -11 0 -14 -3 -6 -6z"/>
<path d="M4367 4683 c-12 -11 -7 -21 13 -26 11 -3 20 -2 20 3 0 12 -26 31 -33
23z"/>
<path d="M4105 4651 c-3 -5 -1 -12 5 -16 5 -3 10 1 10 9 0 18 -6 21 -15 7z"/>
<path d="M5025 4639 c-4 -6 -5 -12 -2 -15 2 -3 7 2 10 11 7 17 1 20 -8 4z"/>
<path d="M4905 4550 c3 -5 8 -10 11 -10 2 0 4 5 4 10 0 6 -5 10 -11 10 -5 0
-7 -4 -4 -10z"/>
<path d="M4350 4539 c0 -5 5 -7 10 -4 6 3 10 8 10 11 0 2 -4 4 -10 4 -5 0 -10
-5 -10 -11z"/>
<path d="M4384 4459 c-3 -6 -1 -16 5 -22 8 -8 11 -5 11 11 0 24 -5 28 -16 11z"/>
<path d="M4465 4430 c3 -5 8 -10 11 -10 2 0 4 5 4 10 0 6 -5 10 -11 10 -5 0
-7 -4 -4 -10z"/>
<path d="M4320 4420 c0 -5 12 -10 28 -10 21 0 24 2 12 10 -20 13 -40 13 -40 0z"/>
<path d="M4225 4400 c3 -5 8 -10 11 -10 2 0 4 5 4 10 0 6 -5 10 -11 10 -5 0
-7 -4 -4 -10z"/>
<path d="M4708 4403 c7 -3 16 -2 19 1 4 3 -2 6 -13 5 -11 0 -14 -3 -6 -6z"/>
<path d="M4286 4361 c-4 -7 -5 -15 -2 -18 9 -9 19 4 14 18 -4 11 -6 11 -12 0z"/>
<path d="M4320 4350 c0 -13 7 -20 20 -20 22 0 18 25 -6 34 -9 3 -14 -1 -14
-14z"/>
<path d="M4443 4352 c10 -10 17 -24 17 -31 0 -8 6 -11 16 -7 9 3 21 6 27 6 7
0 4 5 -5 11 -10 5 -18 17 -18 24 0 10 -10 15 -27 15 -25 0 -25 -1 -10 -18z"/>
<path d="M4430 4280 c0 -5 5 -10 10 -10 6 0 10 5 10 10 0 6 -4 10 -10 10 -5 0
-10 -4 -10 -10z"/>
<path d="M4660 4280 l-25 -8 27 -1 c15 -1 30 4 33 9 7 11 0 11 -35 0z"/>
<path d="M4385 4270 c3 -5 8 -10 11 -10 2 0 4 5 4 10 0 6 -5 10 -11 10 -5 0
-7 -4 -4 -10z"/>
<path d="M4540 4270 c0 -5 5 -10 10 -10 6 0 10 5 10 10 0 6 -4 10 -10 10 -5 0
-10 -4 -10 -10z"/>
<path d="M4488 4253 c7 -3 16 -2 19 1 4 3 -2 6 -13 5 -11 0 -14 -3 -6 -6z"/>
<path d="M4225 4240 c-3 -5 -1 -10 4 -10 6 0 11 5 11 10 0 6 -2 10 -4 10 -3 0
-8 -4 -11 -10z"/>
<path d="M4401 4234 c0 -11 3 -14 6 -6 3 7 2 16 -1 19 -3 4 -6 -2 -5 -13z"/>
<path d="M4427 4149 c7 -7 15 -10 18 -7 3 3 -2 9 -12 12 -14 6 -15 5 -6 -5z"/>
<path d="M1845 2848 c3 -13 79 -349 169 -748 91 -399 175 -768 187 -820 29
-130 70 -213 138 -281 73 -72 130 -105 228 -129 78 -20 105 -21 1094 -18
l1014 3 58 22 c107 41 204 123 264 223 30 50 43 99 143 540 49 217 127 564
174 770 47 206 89 394 94 418 l10 42 -1789 0 -1789 0 5 -22z m630 -511 c23
-19 41 -77 145 -457 72 -262 117 -444 113 -457 -14 -60 -109 -84 -152 -40 -16
18 -51 131 -136 446 -63 232 -115 431 -115 442 0 26 26 76 42 82 32 13 78 6
103 -16z"/>
</g>
</svg>
